<?xml version="1.0" standalone="no"?><!DOCTYPE svg PUBLIC "-//W3C//DTD SVG 1.1//EN" "http://www.w3.org/Graphics/SVG/1.1/DTD/svg11.dtd"><svg t="1510619935345" class="icon" style="" viewBox="0 0 1024 1024" version="1.1" xmlns="http://www.w3.org/2000/svg" p-id="3684" xmlns:xlink="http://www.w3.org/1999/xlink" width="200" height="200"><defs><style type="text/css"></style></defs><path d="M445.480049 299.46691C412.185541 278.470929 384.188841 286.902687 381.499774 323.986112 379.550941 423.311062 381.499774 614.955301 381.499774 715.999228 383.190327 753.644934 416.379794 758.610316 445.185932 743.495435 526.302833 694.349517 665.720342 609.884877 747.247524 560.490567 746.713666 560.166791 809.14921 525.828045 747.959335 482.718935 669.307825 429.202047 526.689633 349.099726 445.480049 299.46691ZM518.538399 973.406979C267.320692 973.406979 63.66957 769.754621 63.66957 518.536915 63.66957 267.320445 267.320692 63.668087 518.538399 63.668087 769.75734 63.668087 973.408462 267.320445 973.408462 518.536915 973.408462 769.754621 769.75734 973.406979 518.538399 973.406979M518.538399 13.128205C239.408026 13.128205 13.128452 239.407779 13.128452 518.539387 13.128452 797.672231 239.408026 1023.951805 518.538399 1023.951805 797.668771 1023.951805 1023.94958 797.670996 1023.94958 518.539387 1023.94958 239.409014 797.668771 13.128205 518.538399 13.128205" p-id="3685"></path></svg>